<?xml version="1.0" encoding="iso-8859-1"?>
<!-- Generator: Adobe Illustrator 22.0.1, SVG Export Plug-In . SVG Version: 6.00 Build 0)  -->
<svg version="1.1" id="Layer_1_1_" xmlns="http://www.w3.org/2000/svg" xmlns:xlink="http://www.w3.org/1999/xlink" x="0px" y="0px"
	 viewBox="0 0 64 64" style="enable-background:new 0 0 64 64;" xml:space="preserve">
<g id="Guide">
	<g>
	</g>
	<g>
	</g>
	<g>
	</g>
	<g>
	</g>
	<g>
	</g>
	<g>
	</g>
	<g>
	</g>
	<g>
	</g>
	<g>
	</g>
	<g>
	</g>
	<g>
	</g>
	<g>
	</g>
	<g>
	</g>
	<g>
	</g>
	<g>
	</g>
	<g>
	</g>
	<g>
	</g>
	<g>
	</g>
	<g>
	</g>
	<g>
	</g>
	<g>
	</g>
	<g>
	</g>
	<g>
	</g>
	<g>
	</g>
	<g>
	</g>
	<g>
	</g>
	<g>
	</g>
	<g>
	</g>
	<g>
	</g>
	<g>
	</g>
	<g>
	</g>
	<g>
	</g>
	<g>
	</g>
	<g>
	</g>
	<g>
	</g>
	<g>
	</g>
</g>
<path fill="white" d="M54.247,11.167C55.038,11.691,55.983,12,57,12c2.757,0,5-2.243,5-5s-2.243-5-5-5s-5,2.243-5,5
	c0,1.017,0.309,1.962,0.833,2.753L44.5,18.086l-8.333-8.333C36.691,8.962,37,8.017,37,7c0-2.757-2.243-5-5-5s-5,2.243-5,5
	c0,1.017,0.309,1.962,0.833,2.753L19.5,18.086l-8.333-8.333C11.691,8.962,12,8.017,12,7c0-2.757-2.243-5-5-5S2,4.243,2,7
	s2.243,5,5,5c0.123,0,0.238-0.027,0.358-0.036l5.993,12.271l-3.598,3.598C8.962,27.309,8.017,27,7,27c-2.757,0-5,2.243-5,5
	s2.243,5,5,5c2.414,0,4.434-1.721,4.899-4h5.733l3.923,8.032L9.753,52.833C8.962,52.309,8.017,52,7,52c-2.757,0-5,2.243-5,5
	s2.243,5,5,5s5-2.243,5-5c0-0.123-0.027-0.238-0.036-0.358l13.899-6.788l2.076,4.251C27.353,54.924,27,55.919,27,57
	c0,2.757,2.243,5,5,5s5-2.243,5-5c0-2.414-1.721-4.434-4-4.899v-5.733l8.032-3.923l11.801,11.801C52.309,55.038,52,55.983,52,57
	c0,2.757,2.243,5,5,5s5-2.243,5-5s-2.243-5-5-5c-0.451,0-0.879,0.079-1.295,0.191l-7.054-13.467l5.454-2.664
	C54.924,36.647,55.919,37,57,37c2.757,0,5-2.243,5-5s-2.243-5-5-5c-1.017,0-1.962,0.309-2.753,0.833L45.914,19.5L54.247,11.167z
	 M57,4c1.654,0,3,1.346,3,3s-1.346,3-3,3s-3-1.346-3-3S55.346,4,57,4z M34.414,31l5.206-5.206L42.347,31H34.414z M43.395,33
	l2.53,4.831l-4.489,2.192L34.414,33H43.395z M33,29.586V13.155l5.648,10.783L33,29.586z M34.335,11.394
	c0.14-0.075,0.286-0.14,0.418-0.227l8.333,8.333l-2.956,2.956L34.335,11.394z M32,4c1.654,0,3,1.346,3,3s-1.346,3-3,3s-3-1.346-3-3
	S30.346,4,32,4z M29.247,11.167c0.524,0.348,1.116,0.602,1.753,0.732v17.687L20.914,19.5L29.247,11.167z M29.586,31H18.88
	l-3.106-6.36l3.726-3.726L29.586,31z M4,7c0-1.654,1.346-3,3-3s3,1.346,3,3s-1.346,3-3,3S4,8.654,4,7z M9.311,11.407
	c0.148-0.078,0.302-0.148,0.442-0.24l8.333,8.333l-3.24,3.24L9.311,11.407z M7,35c-1.654,0-3-1.346-3-3s1.346-3,3-3s3,1.346,3,3
	S8.654,35,7,35z M11.899,31c-0.13-0.637-0.384-1.229-0.732-1.753l3.112-3.112L16.655,31H11.899z M19.857,33h9.729l-6.537,6.537
	L19.857,33z M31,34.414V45.12l-4.218,2.06l-2.805-5.743L31,34.414z M7,60c-1.654,0-3-1.346-3-3s1.346-3,3-3s3,1.346,3,3
	S8.654,60,7,60z M11.407,54.689c-0.078-0.148-0.148-0.302-0.24-0.442l11.315-11.315l2.503,5.125L11.407,54.689z M35,57
	c0,1.654-1.346,3-3,3s-3-1.346-3-3s1.346-3,3-3S35,55.346,35,57z M31,52.101c-0.548,0.112-1.052,0.33-1.519,0.605l-1.821-3.729
	L31,47.345V52.101z M33,44.143v-9.729l6.537,6.537L33,44.143z M60,57c0,1.654-1.346,3-3,3s-3-1.346-3-3s1.346-3,3-3S60,55.346,60,57
	z M53.274,51.86L42.932,41.518l3.922-1.915L53.274,51.86z M45.653,33h6.449c0.112,0.548,0.33,1.052,0.605,1.519l-4.983,2.434
	L45.653,33z M57,29c1.654,0,3,1.346,3,3s-1.346,3-3,3s-3-1.346-3-3S55.346,29,57,29z M52.833,29.247
	c-0.348,0.524-0.602,1.116-0.732,1.753h-7.496l-3.503-6.688l3.398-3.398L52.833,29.247z"/>
</svg>
